<svg id="Layer_1" data-name="Layer 1" xmlns="http://www.w3.org/2000/svg" viewBox="0 0 280 300"><defs><style>.cls-1{fill:#0877b3;}.cls-2{fill:#fff;}</style></defs><title>linkedin round icon</title><rect class="cls-1" x="60.31" y="70.31" width="159.39" height="159.39" rx="18.06"/><path class="cls-2" d="M113.93,141H125.1v35.92H113.93Zm5.59-17.84a6.47,6.47,0,1,1-6.47,6.47,6.46,6.46,0,0,1,6.47-6.47h0"/><path class="cls-2" d="M132.11,141H142.8v4.91h.2a11.74,11.74,0,0,1,10.56-5.79c11.32,0,13.39,7.44,13.39,17.1v19.7H155.79V159.42c0-4.16-.06-9.53-5.79-9.53s-6.7,4.53-6.7,9.23v17.76H132.15Z"/></svg>